<svg xmlns="http://www.w3.org/2000/svg" viewBox="0 0 140.95 333.92"><defs><style>.cls-1{fill:#3384e5;}.cls-2{fill:#303030;}</style></defs><g id="Layer_2" data-name="Layer 2"><g id="Layer_1-2" data-name="Layer 1"><path class="cls-1" d="M141,234.78V209.26c0-12.3-1.14-20.66-3.4-25a32.77,32.77,0,0,0-9.48-11.18L0,101.72v23q0,13.63,2.92,22.11a29.74,29.74,0,0,0,9.47,13.85"/><path class="cls-2" d="M94.29,227.34v43.88q0,20.41-18.47,20.42H67.56q-20.89,0-20.9-20.42v-71.3L0,173.22v96.55q0,64.16,55.89,64.15H84.57q56.4,0,56.38-58.81V253.57"/><path class="cls-2" d="M46.66,106.58V62.7q0-20.41,18.47-20.41h8.26q20.89,0,20.9,20.41v19H141V64.16Q141,0,85.06,0H56.38Q0,0,0,58.81V79.75"/></g></g></svg>